<mxfile host="app.diagrams.net" modified="2021-06-11T08:20:51.985Z" agent="5.0 (Macintosh)" etag="pzAoOtC2y9MRT2wokOlF" version="14.7.7" type="github">
  <diagram id="EY51eIQfH2LJ7qfu2MOL" name="Compilation Unit - single">
    <mxGraphModel dx="1106" dy="562" grid="1" gridSize="10" guides="1" tooltips="1" connect="1" arrows="1" fold="1" page="1" pageScale="1" pageWidth="850" pageHeight="1100" math="1" shadow="0">
      <root>
        <mxCell id="0" />
        <mxCell id="1" parent="0" />
        <mxCell id="VPMRoXDBSHZ9vPJw6oeF-1" value="Unit" style="rounded=1;whiteSpace=wrap;html=1;" vertex="1" parent="1">
          <mxGeometry x="180" y="170" width="120" height="90" as="geometry" />
        </mxCell>
        <mxCell id="VPMRoXDBSHZ9vPJw6oeF-7" style="edgeStyle=orthogonalEdgeStyle;rounded=0;orthogonalLoop=1;jettySize=auto;html=1;exitX=1;exitY=0.5;exitDx=0;exitDy=0;" edge="1" parent="1" source="VPMRoXDBSHZ9vPJw6oeF-2" target="VPMRoXDBSHZ9vPJw6oeF-1">
          <mxGeometry relative="1" as="geometry" />
        </mxCell>
        <mxCell id="VPMRoXDBSHZ9vPJw6oeF-2" value="AST" style="rounded=0;whiteSpace=wrap;html=1;" vertex="1" parent="1">
          <mxGeometry x="100" y="200" width="50" height="30" as="geometry" />
        </mxCell>
        <mxCell id="VPMRoXDBSHZ9vPJw6oeF-9" value="" style="rounded=1;whiteSpace=wrap;html=1;" vertex="1" parent="1">
          <mxGeometry x="180" y="300" width="120" height="90" as="geometry" />
        </mxCell>
        <mxCell id="VPMRoXDBSHZ9vPJw6oeF-10" style="edgeStyle=orthogonalEdgeStyle;rounded=0;orthogonalLoop=1;jettySize=auto;html=1;exitX=1;exitY=0.5;exitDx=0;exitDy=0;entryX=0;entryY=0.5;entryDx=0;entryDy=0;" edge="1" parent="1" source="VPMRoXDBSHZ9vPJw6oeF-11" target="VPMRoXDBSHZ9vPJw6oeF-14">
          <mxGeometry relative="1" as="geometry" />
        </mxCell>
        <mxCell id="VPMRoXDBSHZ9vPJw6oeF-11" value="AST" style="rounded=0;whiteSpace=wrap;html=1;" vertex="1" parent="1">
          <mxGeometry x="100" y="350" width="50" height="30" as="geometry" />
        </mxCell>
        <mxCell id="VPMRoXDBSHZ9vPJw6oeF-41" style="edgeStyle=orthogonalEdgeStyle;rounded=0;orthogonalLoop=1;jettySize=auto;html=1;exitX=0.25;exitY=1;exitDx=0;exitDy=0;entryX=0.25;entryY=0;entryDx=0;entryDy=0;startArrow=classic;startFill=1;endArrow=none;endFill=0;" edge="1" parent="1" source="VPMRoXDBSHZ9vPJw6oeF-13" target="VPMRoXDBSHZ9vPJw6oeF-14">
          <mxGeometry relative="1" as="geometry" />
        </mxCell>
        <mxCell id="VPMRoXDBSHZ9vPJw6oeF-13" value="Unit" style="rounded=1;whiteSpace=wrap;html=1;" vertex="1" parent="1">
          <mxGeometry x="190" y="310" width="100" height="30" as="geometry" />
        </mxCell>
        <mxCell id="VPMRoXDBSHZ9vPJw6oeF-42" style="edgeStyle=orthogonalEdgeStyle;rounded=0;orthogonalLoop=1;jettySize=auto;html=1;exitX=0.75;exitY=0;exitDx=0;exitDy=0;entryX=0.75;entryY=1;entryDx=0;entryDy=0;startArrow=classic;startFill=1;endArrow=none;endFill=0;" edge="1" parent="1" source="VPMRoXDBSHZ9vPJw6oeF-14" target="VPMRoXDBSHZ9vPJw6oeF-13">
          <mxGeometry relative="1" as="geometry" />
        </mxCell>
        <mxCell id="VPMRoXDBSHZ9vPJw6oeF-14" value="Type-Checker" style="rounded=1;whiteSpace=wrap;html=1;" vertex="1" parent="1">
          <mxGeometry x="190" y="350" width="100" height="30" as="geometry" />
        </mxCell>
        <mxCell id="VPMRoXDBSHZ9vPJw6oeF-21" style="edgeStyle=orthogonalEdgeStyle;rounded=0;orthogonalLoop=1;jettySize=auto;html=1;exitX=0;exitY=0.5;exitDx=0;exitDy=0;entryX=0.992;entryY=0.356;entryDx=0;entryDy=0;entryPerimeter=0;endArrow=none;endFill=0;startArrow=classic;startFill=1;" edge="1" parent="1" source="VPMRoXDBSHZ9vPJw6oeF-19" target="VPMRoXDBSHZ9vPJw6oeF-1">
          <mxGeometry relative="1" as="geometry" />
        </mxCell>
        <mxCell id="VPMRoXDBSHZ9vPJw6oeF-19" value="Typing" style="rounded=0;whiteSpace=wrap;html=1;align=center;" vertex="1" parent="1">
          <mxGeometry x="340" y="190" width="50" height="23.5" as="geometry" />
        </mxCell>
        <mxCell id="VPMRoXDBSHZ9vPJw6oeF-23" style="edgeStyle=orthogonalEdgeStyle;rounded=0;orthogonalLoop=1;jettySize=auto;html=1;exitX=0;exitY=0.5;exitDx=0;exitDy=0;entryX=1.008;entryY=0.689;entryDx=0;entryDy=0;entryPerimeter=0;startArrow=classic;startFill=1;endArrow=none;endFill=0;" edge="1" parent="1" source="VPMRoXDBSHZ9vPJw6oeF-20" target="VPMRoXDBSHZ9vPJw6oeF-1">
          <mxGeometry relative="1" as="geometry" />
        </mxCell>
        <mxCell id="VPMRoXDBSHZ9vPJw6oeF-20" value="$$\mathcal{G}$$" style="rounded=0;whiteSpace=wrap;html=1;align=center;" vertex="1" parent="1">
          <mxGeometry x="340" y="220" width="50" height="23.5" as="geometry" />
        </mxCell>
        <mxCell id="VPMRoXDBSHZ9vPJw6oeF-26" style="edgeStyle=orthogonalEdgeStyle;rounded=0;orthogonalLoop=1;jettySize=auto;html=1;exitX=1;exitY=0.5;exitDx=0;exitDy=0;entryX=0;entryY=0.5;entryDx=0;entryDy=0;" edge="1" parent="1" target="VPMRoXDBSHZ9vPJw6oeF-27" source="VPMRoXDBSHZ9vPJw6oeF-14">
          <mxGeometry relative="1" as="geometry">
            <mxPoint x="300" y="365" as="sourcePoint" />
          </mxGeometry>
        </mxCell>
        <mxCell id="VPMRoXDBSHZ9vPJw6oeF-27" value="Typing" style="rounded=0;whiteSpace=wrap;html=1;" vertex="1" parent="1">
          <mxGeometry x="338.08000000000004" y="355" width="50.96" height="20" as="geometry" />
        </mxCell>
        <mxCell id="VPMRoXDBSHZ9vPJw6oeF-30" style="edgeStyle=orthogonalEdgeStyle;rounded=0;orthogonalLoop=1;jettySize=auto;html=1;exitX=0;exitY=0.5;exitDx=0;exitDy=0;entryX=1;entryY=0.5;entryDx=0;entryDy=0;startArrow=classic;startFill=1;endArrow=none;endFill=0;" edge="1" parent="1" source="VPMRoXDBSHZ9vPJw6oeF-31" target="VPMRoXDBSHZ9vPJw6oeF-13">
          <mxGeometry relative="1" as="geometry">
            <mxPoint x="300.00000000000006" y="325.26" as="targetPoint" />
          </mxGeometry>
        </mxCell>
        <mxCell id="VPMRoXDBSHZ9vPJw6oeF-31" value="$$\mathcal{G}$$" style="rounded=0;whiteSpace=wrap;html=1;align=center;" vertex="1" parent="1">
          <mxGeometry x="339.04" y="313.25" width="50" height="23.5" as="geometry" />
        </mxCell>
        <mxCell id="VPMRoXDBSHZ9vPJw6oeF-32" value="" style="rounded=1;whiteSpace=wrap;html=1;" vertex="1" parent="1">
          <mxGeometry x="550" y="300" width="120" height="90" as="geometry" />
        </mxCell>
        <mxCell id="VPMRoXDBSHZ9vPJw6oeF-33" style="edgeStyle=orthogonalEdgeStyle;rounded=0;orthogonalLoop=1;jettySize=auto;html=1;exitX=1;exitY=0.5;exitDx=0;exitDy=0;entryX=0;entryY=0.5;entryDx=0;entryDy=0;" edge="1" parent="1" source="VPMRoXDBSHZ9vPJw6oeF-34" target="VPMRoXDBSHZ9vPJw6oeF-36">
          <mxGeometry relative="1" as="geometry" />
        </mxCell>
        <mxCell id="VPMRoXDBSHZ9vPJw6oeF-34" value="AST B" style="rounded=0;whiteSpace=wrap;html=1;" vertex="1" parent="1">
          <mxGeometry x="470" y="350" width="50" height="30" as="geometry" />
        </mxCell>
        <mxCell id="VPMRoXDBSHZ9vPJw6oeF-35" value="Unit B" style="rounded=1;whiteSpace=wrap;html=1;" vertex="1" parent="1">
          <mxGeometry x="560" y="310" width="100" height="30" as="geometry" />
        </mxCell>
        <mxCell id="VPMRoXDBSHZ9vPJw6oeF-36" value="Type-Checker" style="rounded=1;whiteSpace=wrap;html=1;" vertex="1" parent="1">
          <mxGeometry x="560" y="350" width="100" height="30" as="geometry" />
        </mxCell>
        <mxCell id="VPMRoXDBSHZ9vPJw6oeF-37" style="edgeStyle=orthogonalEdgeStyle;rounded=0;orthogonalLoop=1;jettySize=auto;html=1;exitX=1;exitY=0.5;exitDx=0;exitDy=0;entryX=0;entryY=0.5;entryDx=0;entryDy=0;" edge="1" parent="1" source="VPMRoXDBSHZ9vPJw6oeF-36" target="VPMRoXDBSHZ9vPJw6oeF-38">
          <mxGeometry relative="1" as="geometry">
            <mxPoint x="670" y="365" as="sourcePoint" />
          </mxGeometry>
        </mxCell>
        <mxCell id="VPMRoXDBSHZ9vPJw6oeF-38" value="Typing" style="rounded=0;whiteSpace=wrap;html=1;" vertex="1" parent="1">
          <mxGeometry x="708.08" y="355" width="50.96" height="20" as="geometry" />
        </mxCell>
        <mxCell id="VPMRoXDBSHZ9vPJw6oeF-39" style="edgeStyle=orthogonalEdgeStyle;rounded=0;orthogonalLoop=1;jettySize=auto;html=1;exitX=0;exitY=0.5;exitDx=0;exitDy=0;entryX=1;entryY=0.5;entryDx=0;entryDy=0;startArrow=classic;startFill=1;endArrow=none;endFill=0;" edge="1" parent="1" source="VPMRoXDBSHZ9vPJw6oeF-40" target="VPMRoXDBSHZ9vPJw6oeF-35">
          <mxGeometry relative="1" as="geometry">
            <mxPoint x="670" y="325.26" as="targetPoint" />
          </mxGeometry>
        </mxCell>
        <mxCell id="VPMRoXDBSHZ9vPJw6oeF-40" value="$$\mathcal{G}_B$$" style="rounded=0;whiteSpace=wrap;html=1;align=center;" vertex="1" parent="1">
          <mxGeometry x="709.04" y="313.25" width="50" height="23.5" as="geometry" />
        </mxCell>
        <mxCell id="VPMRoXDBSHZ9vPJw6oeF-43" value="" style="rounded=1;whiteSpace=wrap;html=1;" vertex="1" parent="1">
          <mxGeometry x="550" y="170" width="120" height="90" as="geometry" />
        </mxCell>
        <mxCell id="VPMRoXDBSHZ9vPJw6oeF-44" style="edgeStyle=orthogonalEdgeStyle;rounded=0;orthogonalLoop=1;jettySize=auto;html=1;exitX=1;exitY=0.5;exitDx=0;exitDy=0;entryX=0;entryY=0.5;entryDx=0;entryDy=0;" edge="1" parent="1" source="VPMRoXDBSHZ9vPJw6oeF-45" target="VPMRoXDBSHZ9vPJw6oeF-47">
          <mxGeometry relative="1" as="geometry" />
        </mxCell>
        <mxCell id="VPMRoXDBSHZ9vPJw6oeF-45" value="AST A" style="rounded=0;whiteSpace=wrap;html=1;" vertex="1" parent="1">
          <mxGeometry x="470" y="180" width="50" height="30" as="geometry" />
        </mxCell>
        <mxCell id="VPMRoXDBSHZ9vPJw6oeF-54" style="edgeStyle=orthogonalEdgeStyle;rounded=0;orthogonalLoop=1;jettySize=auto;html=1;exitX=0.75;exitY=1;exitDx=0;exitDy=0;entryX=0.75;entryY=0;entryDx=0;entryDy=0;startArrow=none;startFill=0;endArrow=classic;endFill=1;" edge="1" parent="1" source="VPMRoXDBSHZ9vPJw6oeF-46" target="VPMRoXDBSHZ9vPJw6oeF-35">
          <mxGeometry relative="1" as="geometry" />
        </mxCell>
        <mxCell id="VPMRoXDBSHZ9vPJw6oeF-56" value="$$\mathsf{A}$$" style="edgeLabel;html=1;align=center;verticalAlign=middle;resizable=0;points=[];" vertex="1" connectable="0" parent="VPMRoXDBSHZ9vPJw6oeF-54">
          <mxGeometry y="1" relative="1" as="geometry">
            <mxPoint x="14" as="offset" />
          </mxGeometry>
        </mxCell>
        <mxCell id="VPMRoXDBSHZ9vPJw6oeF-46" value="Unit A" style="rounded=1;whiteSpace=wrap;html=1;" vertex="1" parent="1">
          <mxGeometry x="560" y="220" width="100" height="30" as="geometry" />
        </mxCell>
        <mxCell id="VPMRoXDBSHZ9vPJw6oeF-47" value="Type-Checker" style="rounded=1;whiteSpace=wrap;html=1;" vertex="1" parent="1">
          <mxGeometry x="560" y="180" width="100" height="30" as="geometry" />
        </mxCell>
        <mxCell id="VPMRoXDBSHZ9vPJw6oeF-48" style="edgeStyle=orthogonalEdgeStyle;rounded=0;orthogonalLoop=1;jettySize=auto;html=1;exitX=1;exitY=0.5;exitDx=0;exitDy=0;entryX=0;entryY=0.5;entryDx=0;entryDy=0;" edge="1" parent="1" source="VPMRoXDBSHZ9vPJw6oeF-47" target="VPMRoXDBSHZ9vPJw6oeF-49">
          <mxGeometry relative="1" as="geometry">
            <mxPoint x="670" y="195" as="sourcePoint" />
          </mxGeometry>
        </mxCell>
        <mxCell id="VPMRoXDBSHZ9vPJw6oeF-49" value="Typing" style="rounded=0;whiteSpace=wrap;html=1;" vertex="1" parent="1">
          <mxGeometry x="708.08" y="185" width="50.96" height="20" as="geometry" />
        </mxCell>
        <mxCell id="VPMRoXDBSHZ9vPJw6oeF-50" style="edgeStyle=orthogonalEdgeStyle;rounded=0;orthogonalLoop=1;jettySize=auto;html=1;exitX=0;exitY=0.5;exitDx=0;exitDy=0;entryX=1;entryY=0.5;entryDx=0;entryDy=0;startArrow=classic;startFill=1;endArrow=none;endFill=0;" edge="1" parent="1" source="VPMRoXDBSHZ9vPJw6oeF-51" target="VPMRoXDBSHZ9vPJw6oeF-46">
          <mxGeometry relative="1" as="geometry">
            <mxPoint x="670" y="235.26" as="targetPoint" />
          </mxGeometry>
        </mxCell>
        <mxCell id="VPMRoXDBSHZ9vPJw6oeF-51" value="$$\mathcal{G}_A$$" style="rounded=0;whiteSpace=wrap;html=1;align=center;" vertex="1" parent="1">
          <mxGeometry x="709.04" y="223.25" width="50" height="23.5" as="geometry" />
        </mxCell>
        <mxCell id="VPMRoXDBSHZ9vPJw6oeF-53" style="edgeStyle=orthogonalEdgeStyle;rounded=0;orthogonalLoop=1;jettySize=auto;html=1;exitX=0.25;exitY=0;exitDx=0;exitDy=0;entryX=0.25;entryY=1;entryDx=0;entryDy=0;startArrow=none;startFill=0;endArrow=classic;endFill=1;" edge="1" parent="1" source="VPMRoXDBSHZ9vPJw6oeF-35" target="VPMRoXDBSHZ9vPJw6oeF-46">
          <mxGeometry relative="1" as="geometry" />
        </mxCell>
        <mxCell id="VPMRoXDBSHZ9vPJw6oeF-55" value="&lt;div&gt;$$\mathsf{Q}$$&lt;/div&gt;" style="edgeLabel;html=1;align=center;verticalAlign=middle;resizable=0;points=[];" vertex="1" connectable="0" parent="VPMRoXDBSHZ9vPJw6oeF-53">
          <mxGeometry x="-0.1" y="2" relative="1" as="geometry">
            <mxPoint x="-13" y="-3" as="offset" />
          </mxGeometry>
        </mxCell>
      </root>
    </mxGraphModel>
  </diagram>
</mxfile>
